<?xml version="1.0" encoding="UTF-8" standalone="no"?>
<!DOCTYPE svg PUBLIC "-//W3C//DTD SVG 1.1//EN"
 "http://www.w3.org/Graphics/SVG/1.1/DTD/svg11.dtd">
<!-- Generated by graphviz version 2.40.1 (20161225.0304)
 -->
<!-- Title: %3 Pages: 1 -->
<svg width="758pt" height="260pt"
 viewBox="0.00 0.00 757.56 260.00" xmlns="http://www.w3.org/2000/svg" xmlns:xlink="http://www.w3.org/1999/xlink">
<g id="graph0" class="graph" transform="scale(1 1) rotate(0) translate(4 256)">
<title>%3</title>
<polygon fill="#ffffff" stroke="transparent" points="-4,4 -4,-256 753.5552,-256 753.5552,4 -4,4"/>
<!-- Functor -->
<g id="node1" class="node">
<title>Functor</title>
<polygon fill="none" stroke="#000000" points="127.7741,-252 68.6673,-252 68.6673,-216 127.7741,-216 127.7741,-252"/>
<text text-anchor="middle" x="98.2207" y="-229.8" font-family="Times,serif" font-size="14.00" fill="#000000">Functor</text>
</g>
<!-- Applicative -->
<g id="node2" class="node">
<title>Applicative</title>
<polygon fill="none" stroke="#000000" points="229.0318,-180 147.4096,-180 147.4096,-144 229.0318,-144 229.0318,-180"/>
<text text-anchor="middle" x="188.2207" y="-157.8" font-family="Times,serif" font-size="14.00" fill="#000000">Applicative</text>
</g>
<!-- Functor&#45;&gt;Applicative -->
<g id="edge1" class="edge">
<title>Functor&#45;&gt;Applicative</title>
<path fill="none" stroke="#000000" d="M120.9315,-215.8314C132.0167,-206.9632 145.5161,-196.1637 157.5059,-186.5718"/>
<polygon fill="#000000" stroke="#000000" points="159.8949,-189.1429 165.5172,-180.1628 155.522,-183.6768 159.8949,-189.1429"/>
</g>
<!-- Traversable -->
<g id="node18" class="node">
<title>Traversable</title>
<polygon fill="none" stroke="#000000" points="176.8057,-36 95.6357,-36 95.6357,0 176.8057,0 176.8057,-36"/>
<text text-anchor="middle" x="136.2207" y="-13.8" font-family="Times,serif" font-size="14.00" fill="#000000">Traversable</text>
</g>
<!-- Functor&#45;&gt;Traversable -->
<g id="edge25" class="edge">
<title>Functor&#45;&gt;Traversable</title>
<path fill="none" stroke="#000000" d="M101.3952,-215.9555C108.0172,-178.3144 123.3453,-91.1867 131.2729,-46.1246"/>
<polygon fill="#000000" stroke="#000000" points="134.7428,-46.6003 133.0285,-36.1451 127.8487,-45.3874 134.7428,-46.6003"/>
</g>
<!-- Comonad -->
<g id="node19" class="node">
<title>Comonad</title>
<polygon fill="none" stroke="#c0c0c0" points="70.6635,-180 -.2221,-180 -.2221,-144 70.6635,-144 70.6635,-180"/>
<text text-anchor="middle" x="35.2207" y="-157.8" font-family="Times,serif" font-size="14.00" fill="#000000">Comonad</text>
</g>
<!-- Functor&#45;&gt;Comonad -->
<g id="edge26" class="edge">
<title>Functor&#45;&gt;Comonad</title>
<path fill="none" stroke="#000000" d="M82.3231,-215.8314C74.9929,-207.454 66.1547,-197.3531 58.1238,-188.1749"/>
<polygon fill="#000000" stroke="#000000" points="60.5514,-185.6343 51.3323,-180.4133 55.2834,-190.2438 60.5514,-185.6343"/>
</g>
<!-- Monad -->
<g id="node3" class="node">
<title>Monad</title>
<polygon fill="none" stroke="#000000" points="398.8838,-108 343.5576,-108 343.5576,-72 398.8838,-72 398.8838,-108"/>
<text text-anchor="middle" x="371.2207" y="-85.8" font-family="Times,serif" font-size="14.00" fill="#000000">Monad</text>
</g>
<!-- Applicative&#45;&gt;Monad -->
<g id="edge2" class="edge">
<title>Applicative&#45;&gt;Monad</title>
<path fill="none" stroke="#000000" d="M228.9217,-148.1573C258.4441,-137.8243 299.1754,-122.9625 334.2207,-108 334.3151,-107.9597 334.4097,-107.9192 334.5043,-107.8787"/>
<polygon fill="#000000" stroke="#000000" points="335.7801,-111.1424 343.476,-103.8606 332.9189,-104.7538 335.7801,-111.1424"/>
</g>
<!-- Alternative -->
<g id="node6" class="node">
<title>Alternative</title>
<polygon fill="none" stroke="#000000" points="242.6934,-108 163.748,-108 163.748,-72 242.6934,-72 242.6934,-108"/>
<text text-anchor="middle" x="203.2207" y="-85.8" font-family="Times,serif" font-size="14.00" fill="#000000">Alternative</text>
</g>
<!-- Applicative&#45;&gt;Alternative -->
<g id="edge5" class="edge">
<title>Applicative&#45;&gt;Alternative</title>
<path fill="none" stroke="#000000" d="M192.0058,-143.8314C193.6101,-136.131 195.5177,-126.9743 197.3006,-118.4166"/>
<polygon fill="#000000" stroke="#000000" points="200.7714,-118.9169 199.3846,-108.4133 193.9186,-117.4892 200.7714,-118.9169"/>
</g>
<!-- Applicative&#45;&gt;Traversable -->
<g id="edge23" class="edge">
<title>Applicative&#45;&gt;Traversable</title>
<path fill="none" stroke="#000000" stroke-dasharray="1,5" d="M174.961,-143.8329C168.1523,-133.7256 160.2526,-120.6606 155.2207,-108 145.7246,-84.1072 140.6579,-54.67 138.2051,-36.1123"/>
</g>
<!-- MonadPlus -->
<g id="node7" class="node">
<title>MonadPlus</title>
<polygon fill="none" stroke="#000000" points="411.0071,-36 331.4343,-36 331.4343,0 411.0071,0 411.0071,-36"/>
<text text-anchor="middle" x="371.2207" y="-13.8" font-family="Times,serif" font-size="14.00" fill="#000000">MonadPlus</text>
</g>
<!-- Monad&#45;&gt;MonadPlus -->
<g id="edge6" class="edge">
<title>Monad&#45;&gt;MonadPlus</title>
<path fill="none" stroke="#000000" d="M371.2207,-71.8314C371.2207,-64.131 371.2207,-54.9743 371.2207,-46.4166"/>
<polygon fill="#000000" stroke="#000000" points="374.7208,-46.4132 371.2207,-36.4133 367.7208,-46.4133 374.7208,-46.4132"/>
</g>
<!-- MonadFix -->
<g id="node8" class="node">
<title>MonadFix</title>
<polygon fill="none" stroke="#000000" points="313.5594,-36 238.882,-36 238.882,0 313.5594,0 313.5594,-36"/>
<text text-anchor="middle" x="276.2207" y="-13.8" font-family="Times,serif" font-size="14.00" fill="#000000">MonadFix</text>
</g>
<!-- Monad&#45;&gt;MonadFix -->
<g id="edge7" class="edge">
<title>Monad&#45;&gt;MonadFix</title>
<path fill="none" stroke="#000000" d="M347.2482,-71.8314C335.4346,-62.8779 321.0235,-51.9558 308.2772,-42.2955"/>
<polygon fill="#000000" stroke="#000000" points="310.2693,-39.4137 300.1855,-36.1628 306.0412,-44.9925 310.2693,-39.4137"/>
</g>
<!-- ArrowApply -->
<g id="node13" class="node">
<title>ArrowApply</title>
<polygon fill="none" stroke="#000000" points="516.7668,-36 429.6746,-36 429.6746,0 516.7668,0 516.7668,-36"/>
<text text-anchor="middle" x="473.2207" y="-13.8" font-family="Times,serif" font-size="14.00" fill="#000000">ArrowApply</text>
</g>
<!-- Monad&#45;&gt;ArrowApply -->
<g id="edge20" class="edge">
<title>Monad&#45;&gt;ArrowApply</title>
<path fill="none" stroke="#000000" stroke-width="2" d="M396.9596,-71.8314C412.422,-60.9167 432.0291,-47.0764 447.49,-36.1628"/>
</g>
<!-- Apply -->
<g id="node4" class="node">
<title>Apply</title>
<polygon fill="none" stroke="#c0c0c0" points="215.2207,-252 161.2207,-252 161.2207,-216 215.2207,-216 215.2207,-252"/>
<text text-anchor="middle" x="188.2207" y="-229.8" font-family="Times,serif" font-size="14.00" fill="#000000">Apply</text>
</g>
<!-- Apply&#45;&gt;Applicative -->
<g id="edge3" class="edge">
<title>Apply&#45;&gt;Applicative</title>
<path fill="none" stroke="#000000" d="M188.2207,-215.8314C188.2207,-208.131 188.2207,-198.9743 188.2207,-190.4166"/>
<polygon fill="#000000" stroke="#000000" points="191.7208,-190.4132 188.2207,-180.4133 184.7208,-190.4133 191.7208,-190.4132"/>
</g>
<!-- Semigroup -->
<g id="node5" class="node">
<title>Semigroup</title>
<polygon fill="none" stroke="#000000" points="410.1634,-252 332.278,-252 332.278,-216 410.1634,-216 410.1634,-252"/>
<text text-anchor="middle" x="371.2207" y="-229.8" font-family="Times,serif" font-size="14.00" fill="#000000">Semigroup</text>
</g>
<!-- Semigroup&#45;&gt;Apply -->
<g id="edge4" class="edge">
<title>Semigroup&#45;&gt;Apply</title>
<path fill="none" stroke="#000000" stroke-dasharray="1,5" d="M332.2617,-234C293.3027,-234 254.3438,-234 215.3848,-234"/>
</g>
<!-- Monoid -->
<g id="node9" class="node">
<title>Monoid</title>
<polygon fill="none" stroke="#000000" points="401.5595,-180 340.8819,-180 340.8819,-144 401.5595,-144 401.5595,-180"/>
<text text-anchor="middle" x="371.2207" y="-157.8" font-family="Times,serif" font-size="14.00" fill="#000000">Monoid</text>
</g>
<!-- Semigroup&#45;&gt;Monoid -->
<g id="edge8" class="edge">
<title>Semigroup&#45;&gt;Monoid</title>
<path fill="none" stroke="#000000" d="M371.2207,-215.8314C371.2207,-208.131 371.2207,-198.9743 371.2207,-190.4166"/>
<polygon fill="#000000" stroke="#000000" points="374.7208,-190.4132 371.2207,-180.4133 367.7208,-190.4133 374.7208,-190.4132"/>
</g>
<!-- Monoid&#45;&gt;Applicative -->
<g id="edge9" class="edge">
<title>Monoid&#45;&gt;Applicative</title>
<path fill="none" stroke="#000000" stroke-dasharray="1,5" d="M340.9362,-162C303.6131,-162 266.2899,-162 228.9668,-162"/>
</g>
<!-- Monoid&#45;&gt;Monad -->
<g id="edge22" class="edge">
<title>Monoid&#45;&gt;Monad</title>
<path fill="none" stroke="#000000" stroke-dasharray="1,5" d="M371.2207,-143.8314C371.2207,-133 371.2207,-119.2876 371.2207,-108.4133"/>
</g>
<!-- Monoid&#45;&gt;Alternative -->
<g id="edge11" class="edge">
<title>Monoid&#45;&gt;Alternative</title>
<path fill="none" stroke="#000000" stroke-dasharray="1,5" d="M340.7972,-148.9613C313.3758,-137.2093 272.8809,-119.8544 242.9196,-107.0138"/>
</g>
<!-- Monoid&#45;&gt;MonadPlus -->
<g id="edge12" class="edge">
<title>Monoid&#45;&gt;MonadPlus</title>
<path fill="none" stroke="#000000" stroke-dasharray="1,5" d="M387.6488,-143.989C395.5232,-134.1289 404.1187,-121.2441 408.2207,-108 412.9545,-92.7163 412.9545,-87.2837 408.2207,-72 404.1187,-58.7559 395.5232,-45.8711 387.6488,-36.011"/>
</g>
<!-- Category -->
<g id="node10" class="node">
<title>Category</title>
<polygon fill="none" stroke="#000000" points="565.0388,-180 497.4026,-180 497.4026,-144 565.0388,-144 565.0388,-180"/>
<text text-anchor="middle" x="531.2207" y="-157.8" font-family="Times,serif" font-size="14.00" fill="#000000">Category</text>
</g>
<!-- Monoid&#45;&gt;Category -->
<g id="edge10" class="edge">
<title>Monoid&#45;&gt;Category</title>
<path fill="none" stroke="#000000" stroke-dasharray="1,5" d="M401.5332,-162C433.5329,-162 465.5326,-162 497.5323,-162"/>
</g>
<!-- ArrowPlus -->
<g id="node16" class="node">
<title>ArrowPlus</title>
<polygon fill="none" stroke="#000000" points="749.3904,-108 673.051,-108 673.051,-72 749.3904,-72 749.3904,-108"/>
<text text-anchor="middle" x="711.2207" y="-85.8" font-family="Times,serif" font-size="14.00" fill="#000000">ArrowPlus</text>
</g>
<!-- Monoid&#45;&gt;ArrowPlus -->
<g id="edge19" class="edge">
<title>Monoid&#45;&gt;ArrowPlus</title>
<path fill="none" stroke="#000000" stroke-dasharray="1,5" d="M401.8216,-157.043C466.2608,-146.49 614.0425,-121.6538 663.2207,-108 666.3937,-107.1191 669.6522,-106.1168 672.9051,-105.0466"/>
</g>
<!-- Foldable -->
<g id="node17" class="node">
<title>Foldable</title>
<polygon fill="none" stroke="#000000" points="325.7139,-108 260.7275,-108 260.7275,-72 325.7139,-72 325.7139,-108"/>
<text text-anchor="middle" x="293.2207" y="-85.8" font-family="Times,serif" font-size="14.00" fill="#000000">Foldable</text>
</g>
<!-- Monoid&#45;&gt;Foldable -->
<g id="edge21" class="edge">
<title>Monoid&#45;&gt;Foldable</title>
<path fill="none" stroke="#000000" stroke-dasharray="1,5" d="M351.538,-143.8314C339.7138,-132.9167 324.7202,-119.0764 312.8971,-108.1628"/>
</g>
<!-- Arrow -->
<g id="node11" class="node">
<title>Arrow</title>
<polygon fill="none" stroke="#000000" points="558.2207,-108 504.2207,-108 504.2207,-72 558.2207,-72 558.2207,-108"/>
<text text-anchor="middle" x="531.2207" y="-85.8" font-family="Times,serif" font-size="14.00" fill="#000000">Arrow</text>
</g>
<!-- Category&#45;&gt;Arrow -->
<g id="edge13" class="edge">
<title>Category&#45;&gt;Arrow</title>
<path fill="none" stroke="#000000" d="M531.2207,-143.8314C531.2207,-136.131 531.2207,-126.9743 531.2207,-118.4166"/>
<polygon fill="#000000" stroke="#000000" points="534.7208,-118.4132 531.2207,-108.4133 527.7208,-118.4133 534.7208,-118.4132"/>
</g>
<!-- ArrowChoice -->
<g id="node12" class="node">
<title>ArrowChoice</title>
<polygon fill="none" stroke="#000000" points="627.4211,-36 535.0203,-36 535.0203,0 627.4211,0 627.4211,-36"/>
<text text-anchor="middle" x="581.2207" y="-13.8" font-family="Times,serif" font-size="14.00" fill="#000000">ArrowChoice</text>
</g>
<!-- Arrow&#45;&gt;ArrowChoice -->
<g id="edge14" class="edge">
<title>Arrow&#45;&gt;ArrowChoice</title>
<path fill="none" stroke="#000000" d="M543.8378,-71.8314C549.5379,-63.6232 556.387,-53.7606 562.6566,-44.7323"/>
<polygon fill="#000000" stroke="#000000" points="565.6045,-46.6234 568.4337,-36.4133 559.8549,-42.6306 565.6045,-46.6234"/>
</g>
<!-- Arrow&#45;&gt;ArrowApply -->
<g id="edge15" class="edge">
<title>Arrow&#45;&gt;ArrowApply</title>
<path fill="none" stroke="#000000" d="M516.5849,-71.8314C509.9046,-63.5386 501.8639,-53.557 494.5303,-44.4533"/>
<polygon fill="#000000" stroke="#000000" points="497.0526,-42.0052 488.0536,-36.4133 491.6013,-46.3965 497.0526,-42.0052"/>
</g>
<!-- ArrowLoop -->
<g id="node14" class="node">
<title>ArrowLoop</title>
<polygon fill="none" stroke="#000000" points="727.3174,-36 645.124,-36 645.124,0 727.3174,0 727.3174,-36"/>
<text text-anchor="middle" x="686.2207" y="-13.8" font-family="Times,serif" font-size="14.00" fill="#000000">ArrowLoop</text>
</g>
<!-- Arrow&#45;&gt;ArrowLoop -->
<g id="edge16" class="edge">
<title>Arrow&#45;&gt;ArrowLoop</title>
<path fill="none" stroke="#000000" d="M558.2939,-76.3268C561.298,-74.8504 564.3192,-73.3831 567.2207,-72 589.6986,-61.2851 614.7766,-49.8319 636.0933,-40.2429"/>
<polygon fill="#000000" stroke="#000000" points="637.5981,-43.4039 645.289,-36.1169 634.7325,-37.0174 637.5981,-43.4039"/>
</g>
<!-- ArrowZero -->
<g id="node15" class="node">
<title>ArrowZero</title>
<polygon fill="none" stroke="#000000" points="654.6934,-108 575.748,-108 575.748,-72 654.6934,-72 654.6934,-108"/>
<text text-anchor="middle" x="615.2207" y="-85.8" font-family="Times,serif" font-size="14.00" fill="#000000">ArrowZero</text>
</g>
<!-- Arrow&#45;&gt;ArrowZero -->
<g id="edge17" class="edge">
<title>Arrow&#45;&gt;ArrowZero</title>
<path fill="none" stroke="#000000" d="M558.4551,-90C560.7372,-90 563.0192,-90 565.3013,-90"/>
<polygon fill="#000000" stroke="#000000" points="565.3074,-93.5001 575.3074,-90 565.3073,-86.5001 565.3074,-93.5001"/>
</g>
<!-- ArrowZero&#45;&gt;ArrowPlus -->
<g id="edge18" class="edge">
<title>ArrowZero&#45;&gt;ArrowPlus</title>
<path fill="none" stroke="#000000" d="M654.9707,-90C657.5983,-90 660.2258,-90 662.8534,-90"/>
<polygon fill="#000000" stroke="#000000" points="662.9883,-93.5001 672.9883,-90 662.9882,-86.5001 662.9883,-93.5001"/>
</g>
<!-- Foldable&#45;&gt;Traversable -->
<g id="edge24" class="edge">
<title>Foldable&#45;&gt;Traversable</title>
<path fill="none" stroke="#000000" d="M260.6902,-75.0816C238.7886,-65.0375 209.5157,-51.613 184.8608,-40.3063"/>
<polygon fill="#000000" stroke="#000000" points="186.2114,-37.0752 175.6627,-36.088 183.2934,-43.438 186.2114,-37.0752"/>
</g>
</g>
</svg>
